<svg id="Android" xmlns="http://www.w3.org/2000/svg" xmlns:xlink="http://www.w3.org/1999/xlink" width="25" height="23.155" viewBox="0 0 25 23.155">
  <defs>
    <clipPath id="clip-path">
      <rect id="Rectangle_1912" data-name="Rectangle 1912" width="25" height="23.155" fill="#323234"/>
    </clipPath>
  </defs>
  <g id="Group_2348" data-name="Group 2348" clip-path="url(#clip-path)">
    <path id="Path_7957" data-name="Path 7957" d="M18.626,30.653A12.285,12.285,0,0,1,25,40.486H0a12.284,12.284,0,0,1,6.374-9.833l-2.081-3.6a.51.51,0,0,1-.074-.242.434.434,0,0,1,.434-.434.474.474,0,0,1,.389.242l2.107,3.649A15.561,15.561,0,0,1,12.5,29.121a15.56,15.56,0,0,1,5.351,1.145l2.107-3.649a.475.475,0,0,1,.389-.242.434.434,0,0,1,.434.434.51.51,0,0,1-.074.242ZM6.747,36.924a1.042,1.042,0,1,0-1.042-1.042A1.042,1.042,0,0,0,6.747,36.924Zm11.506,0a1.042,1.042,0,1,0-1.042-1.042A1.042,1.042,0,0,0,18.253,36.924Z" transform="translate(0 -23.016)" fill="#323234"/>
  </g>
</svg>
