<svg xmlns="http://www.w3.org/2000/svg" xmlns:xlink="http://www.w3.org/1999/xlink" width="29.747" height="21.024" viewBox="0 0 29.747 21.024">
  <defs>
    <clipPath id="clip-path">
      <rect id="Rectangle_2525" data-name="Rectangle 2525" width="29.747" height="21.024" fill="none"/>
    </clipPath>
  </defs>
  <g id="C_" data-name="C++" transform="translate(0 0)">
    <g id="Group_2486" data-name="Group 2486" transform="translate(0 0)" clip-path="url(#clip-path)">
      <path id="Path_8142" data-name="Path 8142" d="M11.023,15.228a5.114,5.114,0,1,1,4.279-7.9l4-2.576a10.514,10.514,0,1,0,.038,11.463l-4.492-2.73a5.081,5.081,0,0,1-3.821,1.746" transform="translate(0 0)" fill="#323234"/>
      <path id="Path_8143" data-name="Path 8143" d="M16.3,5.7H14.774V7.909H12.737V9.252h2.037v2.264H16.3V9.252h2.052V7.909H16.3Z" transform="translate(3.759 1.683)" fill="#323234"/>
      <path id="Path_8144" data-name="Path 8144" d="M22.2,7.909V5.7H20.668V7.909H18.631V9.252h2.037v2.264H22.2V9.252h2.052V7.909Z" transform="translate(5.499 1.683)" fill="#323234"/>
    </g>
  </g>
</svg>
