<svg id="dce" xmlns="http://www.w3.org/2000/svg" xmlns:xlink="http://www.w3.org/1999/xlink" width="40" height="40" viewBox="0 0 40 40">
  <defs>
    <clipPath id="clip-path">
      <rect id="Rectangle_2535" data-name="Rectangle 2535" width="40" height="40" fill="none"/>
    </clipPath>
  </defs>
  <g id="Group_2495" data-name="Group 2495" clip-path="url(#clip-path)">
    <path id="Path_8155" data-name="Path 8155" d="M35.2,40H4.8A4.814,4.814,0,0,1,0,35.2V4.8A4.814,4.814,0,0,1,4.8,0H35.2A4.814,4.814,0,0,1,40,4.8V35.2A4.814,4.814,0,0,1,35.2,40" fill="#5a626a"/>
    <path id="Path_8156" data-name="Path 8156" d="M22.342,27.344h-4.92V45.469h4.92c3.2,0,5.08-1.69,5.08-5.406V32.75c0-3.716-1.878-5.406-5.08-5.406m3.016,13.037A2.884,2.884,0,0,1,22.342,43.4H19.485V29.411h2.857a2.884,2.884,0,0,1,3.016,3.021Z" transform="translate(-10.453 -16.406)" fill="#fff"/>
    <path id="Path_8157" data-name="Path 8157" d="M66.085,48.277c.024,3.6,1.436,3.964,2.8,3.964a3.958,3.958,0,0,0,1.948-.463l.307,1.966a5.7,5.7,0,0,1-2.581.456c-2.824,0-4.3-2.369-4.3-5.972,0-3.822,1.607-6.208,3.968-6.208,2.41,0,3.36,2.532,3.36,5.21,0,.438,0,.755-.024,1.047Zm3.7-1.388c.049-2.362-.852-3.408-1.753-3.408-1.217,0-1.85,1.8-1.923,3.408Z" transform="translate(-38.555 -25.212)" fill="#fff"/>
    <path id="Path_8158" data-name="Path 8158" d="M51.233,52.176c-1.549,0-2.942-1.513-2.942-3.935,0-2.156,1.3-3.912,2.942-3.912a2.71,2.71,0,0,1,.482.045,2.7,2.7,0,0,1,.408-1.082,2.739,2.739,0,0,1,.729-.749v-.007a3.945,3.945,0,0,0-1.668-.339c-3.073,0-5,2.64-5,6.151,0,3.875,1.835,5.958,4.6,5.958a4.518,4.518,0,0,0,1.953-.388l-.262-2.01a2.528,2.528,0,0,1-1.239.266" transform="translate(-27.709 -25.319)" fill="#fff"/>
  </g>
</svg>
