<svg id="dcp" xmlns="http://www.w3.org/2000/svg" xmlns:xlink="http://www.w3.org/1999/xlink" width="40" height="40" viewBox="0 0 40 40">
  <defs>
    <clipPath id="clip-path">
      <rect id="Rectangle_2534" data-name="Rectangle 2534" width="40" height="40" fill="none"/>
    </clipPath>
  </defs>
  <g id="Group_2493" data-name="Group 2493" clip-path="url(#clip-path)">
    <path id="Path_8151" data-name="Path 8151" d="M35.2,40H4.8A4.814,4.814,0,0,1,0,35.2V4.8A4.814,4.814,0,0,1,4.8,0H35.2A4.814,4.814,0,0,1,40,4.8V35.2A4.814,4.814,0,0,1,35.2,40" fill="#5a626a"/>
    <path id="Path_8152" data-name="Path 8152" d="M21.3,24.729h-4.92V42.854H21.3c3.2,0,5.08-1.69,5.08-5.406V30.135c0-3.716-1.878-5.406-5.08-5.406m3.016,13.037A2.884,2.884,0,0,1,21.3,40.787H18.438V26.8H21.3a2.884,2.884,0,0,1,3.016,3.021Z" transform="translate(-9.825 -14.837)" fill="#fff"/>
    <path id="Path_8153" data-name="Path 8153" d="M50.184,49.535c-1.567,0-2.977-1.515-2.977-3.94,0-2.158,1.313-3.917,2.977-3.917a2.779,2.779,0,0,1,.488.046,2.677,2.677,0,0,1,.412-1.083,2.766,2.766,0,0,1,.737-.75l0-.007a4.027,4.027,0,0,0-1.688-.34c-3.11,0-5.063,2.643-5.063,6.159,0,3.88,1.856,5.965,4.653,5.965a4.619,4.619,0,0,0,1.977-.388l-.265-2.012a2.589,2.589,0,0,1-1.254.266" transform="translate(-27.044 -23.727)" fill="#fff"/>
    <path id="Path_8154" data-name="Path 8154" d="M69.929,39.2c-.93,0-1.352.475-1.827,1.4v-1.7H68.1a2.949,2.949,0,0,1-.855.706,2.873,2.873,0,0,1-1.12.358V53.453H68.1l0-5.075a2.456,2.456,0,0,0,2.2,1.264c1.783,0,2.82-2.034,2.82-5.024,0-3.591-1.452-5.417-3.194-5.417m-.519,8.552c-.581,0-1.058-.644-1.181-1.308a8.263,8.263,0,0,1-.128-.87V43.15a6.288,6.288,0,0,1,.128-.836c.289-1.058.808-1.286,1.181-1.286,1.078,0,1.758,1.277,1.758,3.31,0,1.869-.7,3.416-1.758,3.416" transform="translate(-39.673 -23.345)" fill="#fff"/>
  </g>
</svg>
