<svg id="ddn" xmlns="http://www.w3.org/2000/svg" xmlns:xlink="http://www.w3.org/1999/xlink" width="40" height="40" viewBox="0 0 40 40">
  <defs>
    <clipPath id="clip-path">
      <rect id="Rectangle_2536" data-name="Rectangle 2536" width="40" height="40" fill="none"/>
    </clipPath>
  </defs>
  <g id="Group_2497" data-name="Group 2497" clip-path="url(#clip-path)">
    <path id="Path_8159" data-name="Path 8159" d="M35.2,40H4.8A4.814,4.814,0,0,1,0,35.2V4.8A4.814,4.814,0,0,1,4.8,0H35.2A4.814,4.814,0,0,1,40,4.8V35.2A4.814,4.814,0,0,1,35.2,40" fill="#5a636a"/>
    <path id="Path_8160" data-name="Path 8160" d="M20.031,27.343H15.192V45.468h4.839c3.279,0,5.161-1.535,5.161-5.246V32.59c0-3.712-1.882-5.246-5.161-5.246m3.064,13.2A2.778,2.778,0,0,1,20.031,43.4H17.289V29.411h2.742A2.778,2.778,0,0,1,23.1,32.272Z" transform="translate(-9.115 -16.406)" fill="#fff"/>
    <path id="Path_8161" data-name="Path 8161" d="M65.62,43.862h1.954v1.282l.163-.321A3.123,3.123,0,0,1,70.5,43.542c1.873,0,2.791,1.429,2.791,3.948V54.6l-1.977,0V47.87c0-1.07-.367-2.4-1.791-2.4-2.171,0-1.943,2.4-1.954,2.4V54.6l-1.954,0Z" transform="translate(-39.372 -26.125)" fill="#fff"/>
    <path id="Path_8162" data-name="Path 8162" d="M48.545,33.348v4.73a2.153,2.153,0,0,0-2.05-1.1c-1.736,0-3.313,1.742-3.313,5.516,0,3.244,1.226,5.522,3.313,5.522a2.239,2.239,0,0,0,2.05-1.419v1.262h2.05l0-15.3h0a2.458,2.458,0,0,1-.586.467,2.287,2.287,0,0,1-1.456.322m0,10.722v.788a1.434,1.434,0,0,1-1.419,1.262c-.988,0-1.734-1.464-1.734-3.627,0-1.92.548-3.627,1.734-3.627a1.639,1.639,0,0,1,1.419,1.577v3.627Z" transform="translate(-25.909 -19.536)" fill="#fff"/>
  </g>
</svg>
