<svg xmlns="http://www.w3.org/2000/svg" xmlns:xlink="http://www.w3.org/1999/xlink" width="25" height="28" viewBox="0 0 25 28">
  <defs>
    <clipPath id="clip-path">
      <rect id="Rectangle_1911" data-name="Rectangle 1911" width="25" height="28" transform="translate(-1.5 -1.607)" fill="#323234" stroke="#707070" stroke-width="1"/>
    </clipPath>
  </defs>
  <g id="iOS" transform="translate(1.5 1.607)">
    <g id="Group_2346" data-name="Group 2346" clip-path="url(#clip-path)">
      <g id="Group_2504" data-name="Group 2504" transform="translate(1 -0.107)">
        <path id="Path_7955" data-name="Path 7955" d="M16.7,50.927a5.587,5.587,0,0,1,2.66-4.687A5.718,5.718,0,0,0,14.859,43.8c-1.9-.2-3.733,1.134-4.7,1.134-.985,0-2.472-1.115-4.074-1.082a6,6,0,0,0-5.049,3.079c-2.183,3.78-.555,9.335,1.537,12.391,1.046,1.5,2.269,3.167,3.869,3.108,1.566-.065,2.151-1,4.041-1,1.873,0,2.421,1,4.054.961,1.68-.027,2.739-1.5,3.748-3.013A12.373,12.373,0,0,0,20,55.893a5.4,5.4,0,0,1-3.3-4.966" transform="translate(0 -37.854)" fill="#323234"/>
        <path id="Path_7956" data-name="Path 7956" d="M77.064,3.94A5.5,5.5,0,0,0,78.322,0,5.6,5.6,0,0,0,74.7,1.873,5.234,5.234,0,0,0,73.41,5.667,4.627,4.627,0,0,0,77.064,3.94" transform="translate(-63.443 0.001)" fill="#323234"/>
      </g>
    </g>
  </g>
</svg>
