<svg xmlns="http://www.w3.org/2000/svg" xmlns:xlink="http://www.w3.org/1999/xlink" width="25" height="33.909" viewBox="0 0 25 33.909">
  <defs>
    <clipPath id="clip-path">
      <rect id="Rectangle_2516" data-name="Rectangle 2516" width="25" height="33.909" fill="none"/>
    </clipPath>
  </defs>
  <g id="Java" transform="translate(0 0)">
    <g id="Group_2469" data-name="Group 2469" transform="translate(0 0)" clip-path="url(#clip-path)">
      <path id="Path_8123" data-name="Path 8123" d="M1.7,31.538c-4.96-.8,2.391-3.61,3.735-2.663a4.8,4.8,0,0,0-1.172.132c-.715.153-2.986.887-1.775,1.41,3.364,1.464,15.478,1.113,19.313-.046,2.013-.616,1.053-1.4,1.053-1.4,3.51,1.582-7.627,4.768-21.154,2.57M3.33,19.921a11.731,11.731,0,0,1,5.338-1.258S2.5,20.127,6.483,20.656a46.635,46.635,0,0,0,8.153-.086c2.55-.212,5.112-.676,5.112-.676a10.754,10.754,0,0,0-1.549.828c-6.259,1.649-18.346.881-14.868-.8M25,30.7c-.219,2.888-9.6,3.5-15.7,3.106C5.284,33.544,4.5,32.9,4.5,32.9a50.207,50.207,0,0,0,15.451-.237C24.577,31.79,25,30.7,25,30.7m-6.537-6.471c-8.033,2.351-16.974.193-11.226-1.715,0,0-1.451,1.073.769,1.3a27.361,27.361,0,0,0,9.059-.437,4.78,4.78,0,0,0,1.4.847m-9.5,3.007a19.391,19.391,0,0,0,7.02-.3,15.03,15.03,0,0,0,1.868.914c-6.637,2.841-15.021-.166-9.809-1.623,0,0-1.3.755.92,1.007M8.556,10.769C10.881,7.291,17.312,5.6,15.887,0c0,0,3.521,3.523-3.344,8.941-5.5,4.344-1.259,6.828,0,9.656-3.212-2.9-5.57-5.451-3.988-7.828m7.332,4.192c1.908,2.683-2.245,4.828-2.245,4.828s2.067-1.695.431-3.576c-5.544-6.385,6.067-9.285,6.06-9.285-7.391,4.285-6.027,5.53-4.246,8.033m5.206,3.829a5.549,5.549,0,0,0-.728.2,1.338,1.338,0,0,1,.543-.417c4.06-1.431,7.186,4.212-1.311,6.444a1.006,1.006,0,0,0,.132-.172c6.364-3.305,3.418-6.484,1.364-6.054" transform="translate(0 0)" fill="#323234"/>
    </g>
  </g>
</svg>
