<svg id="js" xmlns="http://www.w3.org/2000/svg" xmlns:xlink="http://www.w3.org/1999/xlink" width="25" height="25" viewBox="0 0 25 25">
  <defs>
    <clipPath id="clip-path">
      <rect id="Rectangle_2523" data-name="Rectangle 2523" width="25" height="25" fill="none"/>
    </clipPath>
  </defs>
  <g id="Group_2482" data-name="Group 2482" clip-path="url(#clip-path)">
    <rect id="Rectangle_2522" data-name="Rectangle 2522" width="23.529" height="23.529" transform="translate(0.735 0.735)" fill="#323234"/>
    <path id="Path_8139" data-name="Path 8139" d="M13.488,23.33V22.24a4.041,4.041,0,0,0,.819-.068.933.933,0,0,0,.485-.242,1,1,0,0,0,.24-.5,4.272,4.272,0,0,0,.068-.841V12.174h1.532v8.438a4.842,4.842,0,0,1-.206,1.541,1.546,1.546,0,0,1-.724.887,3.075,3.075,0,0,1-1.477.29Z" transform="translate(-3.57 -3.223)" fill="#fff"/>
    <path id="Path_8140" data-name="Path 8140" d="M22.618,23.161a2.916,2.916,0,0,1-1.593-.4,2.549,2.549,0,0,1-.964-1.117,4.58,4.58,0,0,1-.383-1.655l1.368-.363a5.9,5.9,0,0,0,.185,1.117,1.992,1.992,0,0,0,.471.882,1.208,1.208,0,0,0,.916.343,1.182,1.182,0,0,0,.909-.329,1.34,1.34,0,0,0,.308-.949,1.922,1.922,0,0,0-.342-1.191,6.3,6.3,0,0,0-.861-.908l-1.86-1.615a3.08,3.08,0,0,1-.807-1.029,3.259,3.259,0,0,1-.26-1.379,2.434,2.434,0,0,1,.7-1.857,2.652,2.652,0,0,1,1.9-.66,3.611,3.611,0,0,1,1.156.168,2.038,2.038,0,0,1,.833.518,2.538,2.538,0,0,1,.533.882,4.917,4.917,0,0,1,.267,1.245l-1.312.35a5.247,5.247,0,0,0-.164-.989,1.463,1.463,0,0,0-.431-.726,1.276,1.276,0,0,0-.882-.276,1.258,1.258,0,0,0-.9.3,1.173,1.173,0,0,0-.321.895,1.747,1.747,0,0,0,.171.821,2.413,2.413,0,0,0,.554.659l1.873,1.615A5.8,5.8,0,0,1,24.791,18.8a3.205,3.205,0,0,1,.479,1.769,2.712,2.712,0,0,1-.342,1.393,2.285,2.285,0,0,1-.936.895,2.933,2.933,0,0,1-1.374.31" transform="translate(-5.209 -3.189)" fill="#fff"/>
  </g>
</svg>
