<svg xmlns="http://www.w3.org/2000/svg" width="35.52" height="32.075" viewBox="0 0 35.52 32.075">
  <g id="React_Native" data-name="React Native" transform="translate(-0.216 -0.178)">
    <g id="Group_2339" data-name="Group 2339" transform="translate(1.216 1.216)">
      <path id="Path_7942" data-name="Path 7942" d="M48.02,45.77a3.352,3.352,0,1,0-3.352-3.352A3.352,3.352,0,0,0,48.02,45.77" transform="translate(-31.26 -27.418)" fill="#323234"/>
      <path id="Path_7943" data-name="Path 7943" d="M48.02,45.77a3.352,3.352,0,1,0-3.352-3.352A3.352,3.352,0,0,0,48.02,45.77Z" transform="translate(-31.26 -27.418)" fill="none"/>
      <path id="Path_7944" data-name="Path 7944" d="M18.76,40.817c9.256,0,16.76-3.377,16.76-7.542s-7.5-7.542-16.76-7.542S2,29.11,2,33.275,9.5,40.817,18.76,40.817Z" transform="translate(-2 -18.275)" fill="none" stroke="#323234" stroke-miterlimit="10" stroke-width="2"/>
      <path id="Path_7945" data-name="Path 7945" d="M25.616,20.771c4.628,8.016,11.3,12.826,14.911,10.743s2.78-10.27-1.848-18.285S27.375.4,23.768,2.485,20.988,12.755,25.616,20.771Z" transform="translate(-15.388 -2)" fill="none" stroke="#323234" stroke-miterlimit="10" stroke-width="2"/>
      <path id="Path_7946" data-name="Path 7946" d="M25.616,13.229c-4.628,8.016-5.455,16.2-1.848,18.285s10.283-2.728,14.911-10.743,5.456-16.2,1.849-18.285S30.244,5.213,25.616,13.229Z" transform="translate(-15.388 -2)" fill="none" stroke="#323234" stroke-miterlimit="10" stroke-width="2"/>
    </g>
  </g>
</svg>
