<svg id="Xamarin_Forms" data-name="Xamarin Forms" xmlns="http://www.w3.org/2000/svg" xmlns:xlink="http://www.w3.org/1999/xlink" width="33.857" height="30" viewBox="0 0 33.857 30">
  <defs>
    <clipPath id="clip-path">
      <rect id="Rectangle_1907" data-name="Rectangle 1907" width="33.857" height="30" fill="#323234"/>
    </clipPath>
  </defs>
  <g id="Group_2341" data-name="Group 2341" transform="translate(0 0)" clip-path="url(#clip-path)">
    <path id="Path_7951" data-name="Path 7951" d="M33.518,13.741,26.313,1.259A2.531,2.531,0,0,0,24.134,0H9.723A2.514,2.514,0,0,0,7.544,1.259L.339,13.741a2.507,2.507,0,0,0,0,2.517L7.544,28.741A2.531,2.531,0,0,0,9.723,30H24.134a2.514,2.514,0,0,0,2.179-1.259l7.205-12.483a2.507,2.507,0,0,0,0-2.517m-13.37,1.452,4.059,7.214a.27.27,0,0,1-.234.4h-2.5a.278.278,0,0,1-.234-.137l-4.285-7.617-4.285,7.617a.262.262,0,0,1-.234.137H9.9a.268.268,0,0,1-.234-.4l4.051-7.214a.262.262,0,0,0,0-.266L9.666,7.585a.273.273,0,0,1,.242-.4H12.4a.262.262,0,0,1,.234.137l4.341,7.512,4.285-7.512a.262.262,0,0,1,.234-.137H24a.275.275,0,0,1,.242.4l-4.067,7.335a.262.262,0,0,0,0,.266Z" transform="translate(0 0)" fill="#323234"/>
  </g>
</svg>
