<?xml version="1.0" standalone="no"?><!DOCTYPE svg PUBLIC "-//W3C//DTD SVG 1.1//EN" "http://www.w3.org/Graphics/SVG/1.1/DTD/svg11.dtd"><svg t="1624582318875" class="icon" viewBox="0 0 1024 1024" version="1.1" xmlns="http://www.w3.org/2000/svg" p-id="2503" width="48" height="48" xmlns:xlink="http://www.w3.org/1999/xlink"><defs><style type="text/css"></style></defs><path d="M153.6 153.6h563.2a102.4 102.4 0 0 1 102.4 102.4v665.6a102.4 102.4 0 0 1-102.4 102.4H153.6a102.4 102.4 0 0 1-102.4-102.4V256a102.4 102.4 0 0 1 102.4-102.4z m0 51.2a51.2 51.2 0 0 0-51.2 51.2v665.6a51.2 51.2 0 0 0 51.2 51.2h563.2a51.2 51.2 0 0 0 51.2-51.2V256a51.2 51.2 0 0 0-51.2-51.2H153.6z" fill="#323234" p-id="2504"></path><path d="M870.4 870.4v-51.2a51.2 51.2 0 0 0 51.2-51.2V102.4a51.2 51.2 0 0 0-51.2-51.2H307.2a51.2 51.2 0 0 0-51.2 51.2H204.8a102.4 102.4 0 0 1 102.4-102.4h563.2a102.4 102.4 0 0 1 102.4 102.4v665.6a102.4 102.4 0 0 1-102.4 102.4z" fill="#323234" p-id="2505"></path><path d="M204.8 307.2m25.6 0l409.6 0q25.6 0 25.6 25.6l0 0q0 25.6-25.6 25.6l-409.6 0q-25.6 0-25.6-25.6l0 0q0-25.6 25.6-25.6Z" fill="#323234" p-id="2506"></path><path d="M204.8 460.8m25.6 0l409.6 0q25.6 0 25.6 25.6l0 0q0 25.6-25.6 25.6l-409.6 0q-25.6 0-25.6-25.6l0 0q0-25.6 25.6-25.6Z" fill="#323234" p-id="2507"></path><path d="M204.8 614.4m25.6 0l409.6 0q25.6 0 25.6 25.6l0 0q0 25.6-25.6 25.6l-409.6 0q-25.6 0-25.6-25.6l0 0q0-25.6 25.6-25.6Z" fill="#323234" p-id="2508"></path><path d="M204.8 768m25.6 0l409.6 0q25.6 0 25.6 25.6l0 0q0 25.6-25.6 25.6l-409.6 0q-25.6 0-25.6-25.6l0 0q0-25.6 25.6-25.6Z" fill="#323234" p-id="2509"></path></svg>