<svg t="1693365307456" class="icon" viewBox="0 0 1024 1024" version="1.1" xmlns="http://www.w3.org/2000/svg" p-id="6655" id="mx_n_1693365307457" width="20" height="20"><path d="M512 42.666667a469.333333 469.333333 0 1 0 469.333333 469.333333A469.333333 469.333333 0 0 0 512 42.666667z m0 864a394.666667 394.666667 0 1 1 394.666667-394.666667 395.146667 395.146667 0 0 1-394.666667 394.666667z" p-id="6656" fill="#0969da"></path><path d="M474.666667 253.866667m5.333333 0l64 0q5.333333 0 5.333333 5.333333l0 64q0 5.333333-5.333333 5.333333l-64 0q-5.333333 0-5.333333-5.333333l0-64q0-5.333333 5.333333-5.333333Z" p-id="6657" fill="#0969da"></path><path d="M549.333333 690.186667V384a5.333333 5.333333 0 0 0-5.333333-5.333333H405.333333a5.333333 5.333333 0 0 0-5.333333 5.333333v64a5.333333 5.333333 0 0 0 5.333333 5.333333h64a5.333333 5.333333 0 0 1 5.333334 5.333334v231.306666a5.333333 5.333333 0 0 1-5.333334 5.333334H384a5.333333 5.333333 0 0 0-5.333333 5.333333v64a5.333333 5.333333 0 0 0 5.333333 5.333333h256a5.333333 5.333333 0 0 0 5.333333-5.333333v-64a5.333333 5.333333 0 0 0-5.333333-5.333333h-85.333333a5.333333 5.333333 0 0 1-5.333334-5.12z" p-id="6658" fill="#0969da"></path></svg>