<?xml version="1.0" encoding="UTF-8"?>
<svg xmlns="http://www.w3.org/2000/svg" viewBox="0 0 21.65 21.86" stroke="#ccc" fill="#ccc">
    <g id="a"/>
    <g id="b">
        <g id="c">
            <g>
                <path d="M21.22,.49s0-.02-.02-.02h-.01c-.28-.29-.67-.46-1.1-.46H11.65c-.55,0-1,.45-1,1s.45,1,1,1h6.6L6.94,13.29c-.39,.39-.39,1.02,0,1.41,.2,.2,.45,.29,.71,.29s.51-.1,.71-.29L19.65,3.42v6.58c0,.55,.45,1,1,1s1-.45,1-1V1.56c0-.42-.17-.8-.43-1.08Z"/>
                <path d="M19,13.36c-.55,0-1,.45-1,1v4.5c0,.55-.45,1-1,1H3c-.55,0-1-.45-1-1V4.86c0-.55,.45-1,1-1H7.5c.55,0,1-.45,1-1s-.45-1-1-1H3C1.35,1.86,0,3.2,0,4.86v14c0,1.65,1.35,3,3,3h14c1.65,0,3-1.35,3-3v-4.5c0-.55-.45-1-1-1Z"/>
            </g>
        </g>
    </g>
</svg>